<?xml version="1.0" standalone="no"?>
<!DOCTYPE svg PUBLIC "-//W3C//DTD SVG 20010904//EN"
 "http://www.w3.org/TR/2001/REC-SVG-20010904/DTD/svg10.dtd">
<svg version="1.0" xmlns="http://www.w3.org/2000/svg"
 width="888.000000pt" height="888.000000pt" viewBox="0 0 888.000000 888.000000"
 preserveAspectRatio="xMidYMid meet">
<metadata>
Created by potrace 1.14, written by Peter Selinger 2001-2017
</metadata>
<g transform="translate(0.000000,888.000000) scale(0.100000,-0.100000)"
fill="#000000" stroke="none">
<path d="M4435 8352 c-61 -5 -207 -34 -245 -47 -22 -8 -40 -12 -40 -9 0 3 -10
-2 -22 -10 -12 -9 -30 -16 -40 -16 -10 0 -18 -4 -18 -10 0 -5 -3 -9 -8 -7 -12
3 -92 -35 -92 -45 0 -4 -7 -8 -15 -8 -9 0 -18 -7 -21 -15 -4 -8 -10 -13 -15
-10 -10 7 -179 -157 -179 -173 0 -6 -11 -23 -24 -39 -34 -41 -56 -164 -56
-314 0 -68 -5 -204 -11 -301 -13 -203 -5 -308 36 -433 23 -69 24 -80 11 -94
-23 -25 -35 -97 -36 -204 0 -109 13 -150 59 -190 14 -13 27 -30 29 -38 2 -7
13 -24 26 -35 12 -12 28 -37 35 -55 21 -56 45 -104 56 -111 7 -5 7 -8 0 -8 -5
0 -1 -7 9 -15 11 -8 16 -15 12 -15 -4 0 12 -27 35 -60 23 -33 46 -60 50 -60 5
0 9 -6 9 -12 0 -7 34 -46 75 -87 95 -92 100 -102 80 -141 -14 -26 -18 -29 -36
-19 -16 8 -33 8 -68 -1 -29 -8 -113 -12 -228 -11 -149 1 -198 -2 -272 -19 -50
-11 -128 -20 -173 -20 -114 -1 -217 -15 -320 -46 -48 -14 -92 -23 -96 -20 -5
3 -12 38 -15 77 -3 40 -10 75 -16 78 -5 3 -12 22 -15 42 -6 42 -24 91 -35 99
-4 3 -18 21 -31 40 -13 19 -27 37 -30 40 -3 3 -12 19 -20 35 -8 17 -22 39 -32
50 -38 43 -64 74 -78 95 -8 12 -25 34 -38 48 -13 15 -35 43 -50 62 -14 19 -31
40 -38 45 -7 6 -14 19 -16 29 -2 16 7 21 52 30 66 14 97 33 170 103 30 29 68
63 84 76 22 17 28 31 28 60 0 32 -8 45 -56 92 -39 38 -69 58 -99 65 -23 6 -55
15 -71 20 -48 16 -91 12 -119 -12 -24 -22 -51 -91 -39 -102 3 -3 0 -6 -6 -6
-7 0 -12 -9 -12 -20 0 -11 -4 -20 -10 -20 -5 0 -10 -9 -10 -20 0 -11 -3 -20
-8 -20 -20 0 -82 -167 -82 -221 0 -15 9 -70 20 -123 11 -53 17 -102 14 -109
-3 -8 2 -20 11 -27 8 -7 15 -19 15 -27 0 -7 7 -30 16 -51 10 -20 19 -46 21
-57 2 -11 7 -31 12 -45 5 -14 19 -59 31 -100 12 -41 26 -85 31 -97 21 -52 32
-80 44 -108 6 -16 20 -56 30 -87 10 -32 22 -58 27 -58 4 0 8 -6 8 -12 1 -14
34 -48 95 -96 39 -30 175 -107 175 -98 0 2 21 -3 48 -11 26 -8 76 -16 112 -19
36 -3 80 -9 97 -14 18 -5 108 -9 199 -10 152 -1 170 -3 196 -22 74 -52 73 -50
103 -275 16 -114 30 -226 32 -248 6 -72 17 -110 33 -110 8 0 16 -11 18 -25 2
-14 12 -48 22 -77 16 -43 17 -53 5 -63 -13 -11 -17 -57 -28 -325 -2 -49 -7
-138 -11 -198 -7 -89 -5 -113 8 -141 16 -33 46 -66 46 -50 0 5 4 3 9 -4 9 -15
-8 -75 -27 -94 -7 -7 -12 -17 -12 -24 0 -6 -7 -17 -15 -24 -8 -7 -15 -21 -15
-31 0 -9 -6 -24 -13 -31 -14 -15 -67 -123 -67 -138 0 -6 -4 -10 -9 -10 -9 0
-24 -33 -26 -53 0 -4 -4 -11 -10 -15 -18 -13 -55 -71 -55 -86 0 -8 -5 -18 -10
-21 -6 -4 -8 -11 -5 -16 4 -5 0 -12 -8 -15 -8 -3 -14 -18 -15 -34 0 -15 -8
-42 -16 -59 -9 -16 -16 -39 -16 -49 0 -11 -7 -25 -15 -32 -8 -7 -15 -25 -15
-41 0 -16 -4 -29 -10 -29 -5 0 -10 -8 -10 -19 0 -10 -7 -24 -15 -31 -19 -16
-19 -30 1 -30 8 0 20 -14 25 -30 6 -17 14 -30 19 -30 12 0 22 -41 20 -85 -1
-25 -14 -61 -34 -96 -18 -30 -37 -68 -41 -85 -4 -16 -9 -33 -11 -39 -11 -39
-24 -140 -24 -190 0 -33 -7 -119 -15 -190 -11 -99 -19 -132 -32 -140 -32 -20
-83 -81 -83 -101 0 -7 4 -14 10 -16 6 -2 4 -21 -4 -50 -8 -25 -12 -49 -9 -52
4 -3 1 -6 -5 -6 -22 0 -14 -47 9 -53 29 -8 14 -27 -22 -27 -22 0 -29 -5 -29
-20 0 -11 -6 -20 -12 -20 -7 0 -5 -5 5 -11 24 -14 12 -29 -26 -30 -30 0 -30
-1 -9 -10 29 -11 20 -29 -14 -29 -18 0 -24 -5 -22 -17 2 -12 -5 -19 -20 -21
-35 -5 -75 -47 -67 -71 5 -17 1 -23 -22 -31 -54 -19 -77 -36 -83 -60 -4 -16
-12 -24 -23 -22 -10 2 -29 -14 -47 -40 -29 -40 -31 -47 -26 -110 5 -79 7 -83
49 -102 99 -45 282 -53 379 -16 32 12 61 22 65 22 13 1 93 58 93 67 0 4 11 14
25 21 14 7 25 17 25 22 0 12 109 118 121 118 5 0 9 6 9 13 0 7 9 23 21 35 19
21 20 30 14 120 -4 53 -11 102 -16 108 -5 6 -11 29 -13 50 -1 21 -6 46 -9 54
-8 18 -4 61 7 78 4 7 5 20 2 30 -4 10 1 27 9 38 18 23 19 76 3 92 -10 10 -8
19 5 42 10 17 15 30 10 30 -4 0 0 5 10 11 9 6 15 14 12 18 -2 5 2 14 10 21 8
7 15 19 15 26 0 8 4 14 8 14 14 0 49 81 67 155 15 58 22 111 26 170 0 6 -4 46
-9 89 -8 75 -7 80 16 107 27 33 44 36 62 13 12 -13 16 -12 37 10 13 14 31 26
39 26 8 0 17 8 21 18 3 9 15 29 25 44 11 16 16 28 13 28 -3 0 2 12 13 28 18
26 28 48 30 65 1 4 8 15 17 23 8 9 15 21 15 28 0 7 11 23 25 36 14 13 25 29
25 37 0 7 4 13 8 13 5 0 17 18 27 41 10 22 31 51 46 63 15 13 33 42 40 64 6
23 20 50 29 60 10 10 20 27 24 38 3 12 28 30 56 42 28 12 50 26 50 30 0 5 25
9 56 10 41 1 68 -5 104 -23 47 -24 100 -76 100 -99 0 -6 6 -18 12 -25 7 -6 13
-15 14 -19 3 -24 19 -49 68 -104 11 -13 27 -36 33 -51 7 -15 17 -27 23 -27 5
0 10 -7 10 -15 0 -14 18 -53 30 -65 3 -3 14 -22 24 -43 11 -21 30 -49 43 -63
13 -14 23 -28 23 -33 0 -4 11 -30 25 -58 23 -48 28 -52 67 -58 24 -4 48 -6 53
-5 20 4 35 0 35 -11 0 -6 9 -23 20 -39 18 -25 19 -38 14 -126 -4 -55 -6 -103
-5 -109 0 -5 2 -33 4 -62 1 -28 6 -55 10 -59 4 -4 7 -18 7 -31 0 -13 4 -23 9
-23 5 0 12 -13 16 -29 3 -16 13 -35 21 -42 8 -6 14 -18 14 -25 0 -8 5 -14 11
-14 5 0 7 -4 4 -10 -3 -5 -1 -10 5 -10 6 0 9 -4 6 -8 -3 -5 4 -19 15 -30 11
-12 17 -22 13 -22 -3 0 1 -11 10 -24 15 -24 13 -56 -5 -56 -12 0 -12 -67 0
-74 10 -7 21 -70 26 -148 3 -45 0 -60 -12 -67 -12 -6 -16 -22 -14 -62 3 -84
14 -124 34 -121 9 2 17 -2 17 -8 0 -6 11 -15 24 -19 27 -11 36 -48 36 -155 0
-68 0 -68 48 -115 26 -26 63 -54 82 -63 96 -41 105 -43 250 -42 133 0 148 2
185 23 59 35 65 47 63 130 -1 62 -5 77 -24 99 -18 19 -27 22 -37 13 -17 -14
-27 -5 -27 25 0 31 -10 54 -24 54 -14 0 -38 38 -31 49 3 5 -10 22 -29 39 -19
16 -39 39 -46 51 -6 12 -24 24 -41 28 -16 3 -29 11 -29 18 0 7 -7 16 -16 19
-8 3 -12 10 -9 16 4 6 -11 10 -37 10 -41 0 -68 13 -68 32 0 4 15 8 33 8 53 0
62 11 42 54 -13 28 -15 40 -6 49 6 6 11 22 11 36 -1 23 -2 24 -11 8 -16 -27
-29 -10 -29 40 0 55 -25 112 -56 123 -12 5 -25 13 -28 19 -4 5 -12 112 -20
238 -12 202 -17 238 -42 313 -15 47 -37 97 -47 112 -13 18 -21 46 -22 80 -2
46 2 58 29 90 17 21 37 38 44 38 19 0 14 16 -13 46 -14 15 -25 34 -25 43 0 9
-9 43 -20 75 -11 33 -18 67 -15 76 3 10 -1 23 -9 29 -8 7 -20 28 -26 47 -6 19
-15 34 -20 34 -5 0 -11 13 -15 30 -4 16 -11 30 -16 30 -6 0 -8 4 -4 9 3 5 0
15 -7 23 -7 7 -22 29 -32 48 -11 19 -28 42 -38 51 -10 9 -18 21 -18 27 0 6
-13 39 -30 74 -18 39 -27 73 -23 86 4 17 1 22 -14 22 -18 0 -33 24 -59 100
-11 34 -11 36 29 72 l40 36 -12 189 c-7 110 -10 240 -6 313 4 69 8 150 10 180
2 52 16 143 50 320 20 103 22 121 31 237 6 93 9 104 33 125 14 13 29 24 33 23
4 0 16 8 27 17 17 14 50 17 256 18 199 0 250 4 323 21 80 18 165 42 202 56 8
3 21 7 28 9 24 5 100 92 129 146 15 29 27 55 28 58 0 3 8 21 17 41 10 20 19
45 21 56 1 11 11 33 22 49 10 16 20 36 20 44 2 21 53 198 87 305 39 121 78
308 78 374 0 63 -22 152 -54 224 -13 29 -29 78 -36 110 -12 60 -46 107 -78
107 -15 0 -95 -12 -171 -25 -13 -2 -31 -11 -40 -20 -9 -8 -33 -30 -54 -48 -31
-26 -37 -39 -39 -73 -1 -34 4 -46 35 -77 21 -20 37 -41 37 -46 0 -5 12 -19 26
-30 15 -12 24 -21 20 -21 -4 0 3 -11 16 -24 26 -28 92 -66 113 -66 7 0 25 -4
40 -10 23 -9 25 -12 14 -32 -10 -19 -56 -84 -87 -123 -4 -5 -33 -44 -65 -85
-31 -41 -62 -80 -67 -87 -6 -7 -10 -16 -10 -22 0 -5 -3 -11 -7 -13 -12 -5 -73
-95 -73 -107 0 -6 -4 -11 -8 -11 -5 0 -17 -19 -27 -42 -9 -24 -21 -52 -26 -63
-17 -38 -31 -90 -36 -135 -7 -73 -6 -72 -70 -50 -96 32 -192 49 -313 55 -63 4
-158 15 -210 25 -52 11 -178 24 -280 30 -102 7 -189 15 -195 20 -5 4 -35 11
-65 15 -61 8 -79 24 -80 71 0 25 14 45 73 106 84 88 127 139 128 153 0 6 7 14
15 18 8 4 14 14 14 21 0 7 9 21 20 31 11 10 17 21 15 25 -3 5 0 10 5 12 6 2
12 11 13 20 2 9 8 22 14 29 6 8 16 32 23 54 7 22 24 52 39 66 93 92 111 133
112 251 0 102 -14 184 -37 209 -14 15 -13 21 0 53 8 20 15 37 14 39 -1 1 9 33
22 71 22 66 23 80 16 235 -3 92 -9 252 -12 356 -5 178 -24 326 -46 368 -10 20
-33 50 -60 79 -10 10 -18 23 -18 29 0 21 -107 114 -162 142 -31 15 -61 34 -68
42 -6 7 -26 17 -43 21 -17 3 -38 10 -47 15 -32 18 -137 52 -185 59 -27 5 -68
12 -90 17 -22 4 -53 7 -70 5z"/>
<path d="M960 6536 c0 -2 7 -6 15 -10 8 -3 15 -1 15 4 0 6 -7 10 -15 10 -8 0
-15 -2 -15 -4z"/>
<path d="M1575 5399 c-4 -6 -5 -12 -2 -15 2 -3 7 2 10 11 7 17 1 20 -8 4z"/>
</g>
</svg>
